<!-- Placeholder SVG Logo for Attenova QR Scanner Attendance System -->
<!-- Replace this file with your custom logo SVG -->
<svg xmlns="http://www.w3.org/2000/svg" viewBox="0 0 100 100" width="100" height="100">
  <!-- Background circle -->
  <circle cx="50" cy="50" r="48" fill="#10b981" opacity="0.1" stroke="#10b981" stroke-width="2"/>
  
  <!-- QR Code representation -->
  <g fill="#10b981">
    <!-- Top-left corner -->
    <rect x="15" y="15" width="8" height="8"/>
    <rect x="25" y="15" width="8" height="8"/>
    <rect x="35" y="15" width="8" height="8"/>
    <rect x="15" y="25" width="8" height="8"/>
    <rect x="35" y="25" width="8" height="8"/>
    <rect x="15" y="35" width="8" height="8"/>
    <rect x="25" y="35" width="8" height="8"/>
    <rect x="35" y="35" width="8" height="8"/>
    
    <!-- Top-right corner -->
    <rect x="52" y="15" width="8" height="8"/>
    <rect x="62" y="15" width="8" height="8"/>
    <rect x="72" y="15" width="8" height="8"/>
    <rect x="52" y="25" width="8" height="8"/>
    <rect x="72" y="25" width="8" height="8"/>
    <rect x="52" y="35" width="8" height="8"/>
    <rect x="62" y="35" width="8" height="8"/>
    <rect x="72" y="35" width="8" height="8"/>
    
    <!-- Bottom-left corner -->
    <rect x="15" y="52" width="8" height="8"/>
    <rect x="25" y="52" width="8" height="8"/>
    <rect x="35" y="52" width="8" height="8"/>
    <rect x="15" y="62" width="8" height="8"/>
    <rect x="35" y="62" width="8" height="8"/>
    <rect x="15" y="72" width="8" height="8"/>
    <rect x="25" y="72" width="8" height="8"/>
    <rect x="35" y="72" width="8" height="8"/>
    
    <!-- Center pattern -->
    <rect x="52" y="52" width="8" height="8"/>
    <rect x="62" y="52" width="8" height="8"/>
    <rect x="72" y="52" width="8" height="8"/>
    <rect x="52" y="62" width="8" height="8"/>
    <rect x="62" y="62" width="8" height="8"/>
    <rect x="72" y="62" width="8" height="8"/>
    <rect x="52" y="72" width="8" height="8"/>
    <rect x="62" y="72" width="8" height="8"/>
    <rect x="72" y="72" width="8" height="8"/>
  </g>
</svg>

